<?xml version="1.0" encoding="utf-8"?>
<!DOCTYPE svg PUBLIC "-//W3C//DTD SVG 20010904//EN" "http://www.w3.org/TR/2001/REC-SVG-20010904/DTD/svg10.dtd">
<svg version="1.0" xmlns="http://www.w3.org/2000/svg" width="966px" height="126px" viewBox="0 0 966 126" preserveAspectRatio="xMidYMid meet">
 <g fill="none" stroke="#000000" stroke-width="1">
  <path d="M2.5 122.5C9 105.5 16.5 89 23.5 72C27.5 62.5 31 51.5 37 43C38.5 41 41 40.5 43 38.5C48 33 53 27 58.5 21.5C66 14 75.5 7 85.5 4C91 2.5 97 3 99 9.5C102 18 98 28.5 95.5 36.5C89 55 80.5 73 73.5 91.5C71 98.5 61.5 116 69.5 121.5C76 126.5 85 117 89 113C93.5 108.5 99.5 105.5 103 101C106.5 97 109 92 111.5 88C116 81.5 122.5 76 129.5 72.5C135.5 69.5 141.5 67 148 67C150 67 153 66.5 154.5 68.5C156 70 155 72.5 154.5 74C152.5 78.5 150 82.5 148 86.5C145 92.5 142 102 137.5 107C136 108.5 134 109 132.5 110.5C127 116 112 130 105 118.5C102.5 114.5 103 107 103 102.5M392.5 122.5C406.5 98 411 67 427 43.5C428.5 41 431.5 40.5 433 38.5C438.5 32.5 444 26.5 449.5 21C456.5 14 465.5 7 475.5 4C482.5 2 488.5 4 490 11.5C492 19.5 488 29.5 485.5 37C479 55.5 470.5 73.5 463.5 92C461 99 457.5 106.5 457.5 114C457.5 116.5 457.5 120 459.5 121.5C465.5 126.5 474.5 118 478.5 114C482 111 484.5 107.5 488 104.5C489.5 103 492 102.5 493.5 101C496.5 97 498.5 92.5 501.5 88.5C506.5 82 512.5 77 519 73C524.5 69 531 67 538 67C540 67 543.5 66.5 545 69C546.5 73 541 81 539 84.5C535.5 91.5 532.5 101 528 107C526.5 108.5 524.5 109 523 110.5C519 114 515.5 118.5 510.5 121C497.5 127.5 491 114 493.5 102.5M264.5 60.5C268.5 44 277 27.5 286 13C288 9 296 -2 300.5 6C305 12.5 297 22.5 293.5 27.5C286 37.5 279 48 270.5 57.5C269 59.5 266 60 264.5 62C260 68 258 77 252.5 82.5C249.5 85 246 86.5 243.5 89.5C237.5 96 231.5 104 223.5 108C220 109.5 216.5 110 213 110C211.5 110 209.5 109 208 110C200.5 114.5 193 126 182.5 121.5C177 119.5 175.5 113 175.5 108C175.5 106.5 177 101 175 100.5C172 100 168 105.5 166.5 107C161.5 112 156 119 149.5 121.5C140.5 125 136.5 115.5 138.5 108M11.5 16C16 8.5 27 4 35.5 4C40 4 45.5 5 46.5 10.5C48 20.5 34 31.5 42 39.5M402 16C405.5 8 418 4 426 4C430 4 435 5 436.5 9.5C437.5 13 435.5 17 434.5 20C432 26.5 428 34 428 41M594 60.5C595 52.5 599.5 44.5 603 37C607.5 27.5 611 16 618 8C625 0.5 632.5 5.5 629.5 14.5C627.5 22 622 29 617.5 35C611.5 43 605.5 51.5 599 58.5C597.5 60 595 60.5 594 62C589 67.5 587 75.5 582.5 81C581 83 578.5 84 576.5 85.5C572 90 568 95 563.5 99.5C558.5 105.5 552.5 112 546 117C543 120 539 122.5 535 122.5C527.5 122 529.5 112.5 528 108M38 36.5L37.5 41M342 46.5L341 47.5M869 46.5L868 47.5M959.5 46.5L959 47M208.5 109C199 101 200 89 204 78C205.5 74 209.5 67.5 214.5 67.5C219.5 67.5 220.5 74 221 78C221.5 88.5 215.5 100.5 209.5 108.5M631.5 102C637 95 640.5 87.5 647 81.5C654.5 74.5 663 68.5 673.5 67C676 67 682.5 66 684 69C686 73 680 81.5 678 85C675 91.5 672 100.5 667.5 106C665.5 108.5 662.5 110 660 112.5C656 116.5 651.5 120.5 646 122C638.5 124 632.5 119 632.5 111.5C632.5 109.5 633.5 102 630.5 102.5C627.5 103 625.5 106 623.5 108C617.5 114 606 127.5 596.5 120C592 116.5 589 110.5 587.5 105C587 103 586.5 100.5 588 99C590 97 594 97 596.5 96C601.5 94 607 91.5 611 88.5C616 84.5 624.5 71.5 614 68.5C607.5 66.5 599 74.5 595 78.5C592.5 81 590 84 587.5 86.5C586 87.5 584 88 583 89.5C575.5 99 572 112.5 567.5 123.5M948 67.5C939 80 934 92.5 929.5 107C928 110.5 925 119.5 929.5 122C933.5 124 938.5 120 941 117.5C949 110 957 102 964 94M238 123.5C243 113 246 100.5 253 91C254.5 89 257 88 258.5 86.5C262 83 264.5 79 268.5 76C273 72 284.5 63 289 72C290.5 75.5 289 80 286.5 83C282 89.5 275 93.5 267.5 96C265 96.5 258 97.5 257.5 101C257.5 112.5 269.5 127 281 120C289.5 114.5 297 105.5 303.5 98C307.5 94 311 89.5 315 85.5C316.5 84 319 83.5 320.5 82C324 78 326.5 73 329.5 68.5M721.5 122C727.5 111.5 731.5 100 738.5 90C740 88 742 87.5 743.5 86C747 82.5 749.5 78.5 753 75C754.5 73.5 756 72 758 71C759 70 760.5 69 762 68.5C766.5 67 770 69.5 771 74C772.5 80 771.5 88 770 94L771 95C775.5 93 778 88.5 781 85C785 80.5 790 76 795 72.5C798.5 70 803.5 67 808 68.5C813.5 71 811.5 78 810 82.5C807 91.5 802.5 100.5 799.5 109.5C798.5 112.5 797 117.5 798.5 120.5C802.5 127 813.5 115.5 816.5 113C825.5 104.5 833 95 841.5 86C843.5 84 846.5 83.5 848 81.5C851.5 77.5 853.5 72.5 856.5 68.5M668 107.5C668 111.5 667.5 116 669.5 119.5C674 126.5 682.5 119.5 686.5 116C699 104.5 709 91.5 720.5 79C724 75.5 730 67 735.5 68.5C743.5 71 737 83.5 739.5 88.5M937 83.5C930.5 85 925.5 93 921.5 98C914 106.5 904 117 893 120.5C888 122 880 124 875.5 121C869.5 117.5 870 105.5 871 99.5C873 90.5 882.5 79.5 889 73.5C897 66 906.5 67.5 907 79.5M198.5 69C187 77 182.5 89 175 100M252 83L253.5 89.5M582.5 83L582.5 88M320 83.5C319.5 92.5 313.5 101 311.5 109.5C310.5 113 309 117 310.5 120.5C313 125 319.5 121 322 119C331 111 338.5 102.5 347 94M847.5 83.5C844.5 93 839 102.5 837.5 112.5C837 116 836.5 122.5 841.5 122.5C845.5 122.5 848 119.5 851 117C857.5 111.5 862.5 103.5 870 99.5M770.5 95.5L758.5 121.5"/>
 </g>
</svg>